<?xml version="1.0" encoding="UTF-8"?>
<svg id="Layer_1" xmlns="http://www.w3.org/2000/svg" version="1.1" viewBox="0 0 512 512">
  <!-- Generator: Adobe Illustrator 29.4.0, SVG Export Plug-In . SVG Version: 2.1.0 Build 152)  -->
  <defs>
    <style>
      .st0 {
        fill: #e3e3e3;
      }
    </style>
  </defs>
  <path class="st0" d="M298.7,256c0,23.5-19.2,42.7-42.7,42.7s-42.7-19.2-42.7-42.7,19.2-42.7,42.7-42.7,42.7,19.2,42.7,42.7ZM195.6,150.4c-12.6-12.6-32.9-12.6-45.2,0-58.2,58.2-58.2,153,0,211.2,6.2,6.2,14.5,9.4,22.6,9.4s16.4-3.2,22.6-9.4c12.6-12.6,12.6-32.9,0-45.2-33.3-33.3-33.3-87.5,0-120.7,12.6-12.6,12.6-32.9,0-45.2h0ZM361.6,150.4c-12.6-12.6-32.9-12.6-45.2,0s-12.6,32.9,0,45.2c16.2,16.2,25,37.5,25,60.4s-9,44.2-25,60.4c-12.6,12.6-12.6,32.9,0,45.2,6.2,6.2,14.5,9.4,22.6,9.4s16.4-3.2,22.6-9.4c28.2-28.2,43.7-65.7,43.7-105.6s-15.6-77.4-43.7-105.6h0ZM120.3,120.3c12.6-12.6,12.6-32.9,0-45.2-12.6-12.6-32.9-12.6-45.2,0-99.8,99.6-99.8,262.2-.2,362,6.2,6.2,14.5,9.4,22.6,9.4s16.4-3.2,22.6-9.4c12.6-12.6,12.6-32.9,0-45.2-74.9-74.9-74.9-196.7,0-271.6h.2ZM437.1,75.1c-12.6-12.6-32.9-12.6-45.2,0-12.6,12.6-12.6,32.9,0,45.2,74.9,74.9,74.9,196.7,0,271.6-12.6,12.6-12.6,32.9,0,45.2,6.2,6.2,14.5,9.4,22.6,9.4s16.4-3.2,22.6-9.4c99.8-99.8,99.8-262.2,0-362h0Z"/>
</svg>