<?xml version="1.0" encoding="UTF-8"?>
<svg id="Capa_1" xmlns="http://www.w3.org/2000/svg" version="1.1" viewBox="0 0 24 24">
  <!-- Generator: Adobe Illustrator 29.4.0, SVG Export Plug-In . SVG Version: 2.1.0 Build 152)  -->
  <defs>
    <style>
      .st0 {
        fill: #e3e3e3;
      }
    </style>
  </defs>
  <path class="st0" d="M10.4,19.8l.3-1.4c0-.2.2-.4.3-.5s.4-.2.6-.3l3.1-.3c.2,0,.4,0,.6.1s.3.3.4.5l.4,1c.7-.4,1.2-.8,1.8-1.4.5-.5,1-1.1,1.3-1.8l-.3-.2c-.2-.1-.3-.3-.4-.5s-.1-.4,0-.6l.7-3.1c0-.2.2-.4.3-.5s.3-.2.5-.3c0-.4-.2-.8-.3-1.2s-.3-.8-.5-1.1c-.2,0-.3.1-.5.1s-.3,0-.5-.2l-2.7-1.6c-.2-.1-.3-.3-.4-.5s-.1-.4,0-.6l.2-.9c-.5-.2-1-.4-1.6-.5s-1.1-.2-1.7-.2-.5,0-.7,0-.5,0-.7.1l.8,1.7c0,.2.1.4,0,.6s-.1.4-.3.5l-2.4,2.1c-.2.2-.4.2-.6.3s-.4,0-.6-.2l-2.3-1.4c-.4.6-.7,1.3-.9,2s-.3,1.5-.3,2.2,0,.7.1,1.3l2.2-.2c.2,0,.4,0,.6.1s.3.3.4.5l1.2,2.9c0,.2.1.4,0,.6s-.1.4-.3.5l-1,.8c.5.3.9.6,1.4.8s1,.4,1.6.5ZM12.2,15.5c-.2,0-.4,0-.6-.1s-.3-.3-.4-.5l-1.4-3.1c0-.2,0-.4,0-.6,0-.2.2-.4.3-.5l2.6-2.2c.2-.2.3-.2.6-.3s.4,0,.6.2l2.8,1.7c.2.1.3.3.4.5s.1.4,0,.6l-.8,3.3c0,.2-.2.4-.3.5s-.3.2-.6.3l-3.3.3ZM12,22c-1.4,0-2.7-.3-3.9-.8s-2.3-1.2-3.2-2.1-1.6-2-2.1-3.2-.8-2.5-.8-3.9.3-2.7.8-3.9,1.2-2.3,2.1-3.2,2-1.6,3.2-2.1,2.5-.8,3.9-.8,2.7.3,3.9.8,2.3,1.2,3.2,2.1,1.6,2,2.1,3.2.8,2.5.8,3.9-.3,2.7-.8,3.9-1.2,2.3-2.1,3.2-2,1.6-3.2,2.1-2.5.8-3.9.8Z"/>
</svg>