<?xml version="1.0" encoding="UTF-8"?>
<svg id="Layer_1" xmlns="http://www.w3.org/2000/svg" version="1.1" viewBox="0 0 512 512">
  <!-- Generator: Adobe Illustrator 29.4.0, SVG Export Plug-In . SVG Version: 2.1.0 Build 152)  -->
  <defs>
    <style>
      .st0 {
        fill: #3b00d8;
        fill-rule: evenodd;
      }
    </style>
  </defs>
  <path class="st0" d="M340.7,149.7c9.4,2.5,17.3,8.5,22.1,16.9,9.3,16.1,4.8,36.6-9.8,47.4l-36.1-62.6c7.5-3.2,15.8-3.9,23.9-1.7h0ZM115.5,386l50.4-29.1-66.4-114.9-50.3,29.1c-15.3,8.8-26.2,23.1-30.8,40.3-4.6,17.2-2.3,35.1,6.5,50.3,12.3,21.3,34.6,33.2,57.6,33.2s22.6-2.9,33.1-8.9h0ZM220.7,451.9l-42.3-73.3-39.5,22.8,42.3,73.3c6.3,10.9,20.3,14.6,31.2,8.4,5.2-3,9-8,10.6-13.9,1.6-5.9.8-12.1-2.2-17.3h0ZM378.1,307.5L248.4,82.9c-2.7-4.7-7.1-7.3-12.5-7.3s-.2,0-.3,0c-5.5.1-10,2.8-12.6,7.7-4.6,8.6-9,17.8-13.6,27.5-19.6,40.9-41.6,86.9-88.5,118.3l66.8,115.6c50.6-24.9,101.4-20.9,146.6-17.5,10.8.8,20.9,1.6,30.7,2,5.5.2,10.1-2.3,12.9-7,2.8-4.7,2.9-10,.1-14.7h0ZM345.5,76.8c-3.4,6-1.4,13.6,4.6,17.1,2,1.1,4.1,1.7,6.2,1.7,4.3,0,8.5-2.2,10.8-6.3l25.8-44.7c3.4-6,1.4-13.6-4.6-17.1-6-3.5-13.6-1.4-17.1,4.6l-25.8,44.7h0ZM496,213.9c0-6.9-5.6-12.5-12.5-12.5h-51.6c-6.9,0-12.5,5.6-12.5,12.5s5.6,12.5,12.5,12.5h51.6c6.9,0,12.5-5.6,12.5-12.5ZM466.1,106.9c-3.5-6-11.1-8-17.1-4.6l-45.8,26.4c-6,3.5-8,11.1-4.6,17.1,2.3,4,6.5,6.3,10.8,6.3s4.3-.5,6.2-1.7l45.8-26.4c6-3.5,8.1-11.1,4.6-17.1h0Z"/>
</svg>