<?xml version="1.0" encoding="UTF-8"?>
<svg id="Capa_1" xmlns="http://www.w3.org/2000/svg" version="1.1" viewBox="0 0 512 512">
  <!-- Generator: Adobe Illustrator 29.4.0, SVG Export Plug-In . SVG Version: 2.1.0 Build 152)  -->
  <defs>
    <style>
      .st0 {
        fill: #3b00d8;
      }
    </style>
  </defs>
  <path class="st0" d="M497,90h-45v362c0,17.4,7.6,33,19.5,43.9,6,5.4,15,5.4,21,0,11.9-10.9,19.5-26.5,19.5-43.9V105c0-8.3-6.7-15-15-15Z"/>
  <rect class="st0" x="90" y="270" width="90" height="90"/>
  <rect class="st0" x="90" y="90" width="240" height="90"/>
  <path class="st0" d="M420,452c0-577.9,0-300,0-437s-6.7-15-15-15H15C6.7,0,0,6.7,0,15v422c0,41.4,33.6,75,75,75h368.4c-14.4-16-23.4-36.9-23.4-60ZM60,255c0-8.3,6.7-15,15-15h120c8.3,0,15,6.7,15,15v120c0,8.3-6.7,15-15,15h-120c-8.3,0-15-6.7-15-15v-120ZM345,452H75c-19.8,0-19.9-30,0-30h270c19.8,0,19.9,30,0,30ZM345,390h-90c-19.8,0-19.9-30,0-30h90c19.8,0,19.9,30,0,30ZM345,330h-90c-19.8,0-19.9-30,0-30h90c19.8,0,19.9,30,0,30ZM345,270h-90c-19.8,0-19.9-30,0-30h90c19.8,0,19.9,30,0,30ZM360,195c0,8.3-6.7,15-15,15H75c-8.3,0-15-6.7-15-15v-120c0-8.3,6.7-15,15-15h270c8.3,0,15,6.7,15,15v120Z"/>
</svg>