<?xml version="1.0" encoding="UTF-8"?>
<svg id="Capa_1" xmlns="http://www.w3.org/2000/svg" version="1.1" viewBox="0 0 512 512">
  <!-- Generator: Adobe Illustrator 29.4.0, SVG Export Plug-In . SVG Version: 2.1.0 Build 152)  -->
  <defs>
    <style>
      .st0 {
        fill: #e3e3e3;
      }
    </style>
  </defs>
  <path class="st0" d="M256,512c141.3,0,256-114.7,256-256S397.3,0,256,0,0,114.7,0,256s114.7,256,256,256ZM237.7,109.7c0-10.1,8.2-18.3,18.3-18.3s18.3,8.2,18.3,18.3v137.5l84.6,67.7c7.9,6.3,9.1,17.8,2.8,25.7-3.6,4.5-8.9,6.9-14.3,6.9s-8-1.3-11.4-4l-91.4-73.1c-4.3-3.5-6.9-8.7-6.9-14.3V109.7h0Z"/>
</svg>