<?xml version="1.0" encoding="UTF-8"?>
<svg id="Capa_1" xmlns="http://www.w3.org/2000/svg" version="1.1" viewBox="0 0 512 512">
  <!-- Generator: Adobe Illustrator 29.4.0, SVG Export Plug-In . SVG Version: 2.1.0 Build 152)  -->
  <defs>
    <style>
      .st0 {
        fill: #e3e3e3;
      }
    </style>
  </defs>
  <circle class="st0" cx="150.6" cy="323.8" r="45.2"/>
  <path class="st0" d="M370.2,173.2l-30.1,30.1h-38.9v-30.1h-150.6c-5.7,0-11.2.3-16.7.9-6.4-26.4-30.2-46.1-58.5-46.1s-60.2,27-60.2,60.2,6.4,31.2,17.3,42.3C12.1,256.2,0,288.6,0,323.8,0,406.8,67.6,474.4,150.6,474.4s135.4-52.5,148.2-123.7l213.2-60.7v-116.8h-141.8ZM45.2,188.2c0-16.6,13.5-30.1,30.1-30.1s25.6,9.5,29.1,22.3c-18.7,6-36,15.7-51.1,28.4-5.2-5.5-8.1-12.8-8.1-20.6ZM150.6,399.1c-41.5,0-75.3-33.8-75.3-75.3s33.8-75.3,75.3-75.3,75.3,33.8,75.3,75.3-33.8,75.3-75.3,75.3Z"/>
  <path class="st0" d="M316.2,37.6h30.1v60.2h-30.1v-60.2Z"/>
  <path class="st0" d="M380.8,104.9l42.6-42.6,21.3,21.3-42.6,42.6-21.3-21.3Z"/>
  <path class="st0" d="M217.8,83.6l21.3-21.3,42.6,42.6-21.3,21.3-42.6-42.6Z"/>
</svg>